<?xml version="1.0" encoding="UTF-8"?>
<svg version="1.1" xmlns="http://www.w3.org/2000/svg" width="128" height="128">
<path d="M0 0 C9.7893585 9.21167706 14.86414121 21.45435658 15.77734375 34.75390625 C15.88175975 44.39498348 13.46557624 53.15104348 9.8125 62 C10.56273438 62.4846875 11.31296875 62.969375 12.0859375 63.46875 C35.57657864 78.85304898 35.57657864 78.85304898 37.8125 88 C37.90808669 94.32996275 37.11167328 99.11985736 32.8125 104 C27.98032295 108.25691788 23.12648893 109.37256456 16.8125 109 C4.34516963 105.95141922 -2.76499008 90.98910867 -9.1875 81 C-10.03828125 81.3609375 -10.8890625 81.721875 -11.765625 82.09375 C-25.0298828 87.17367852 -40.04445731 88.76495176 -53.5234375 83.31640625 C-67.71557354 76.30357657 -76.73142603 66.99957963 -82.1875 52 C-86.01699044 39.2165319 -84.56047758 26.01808822 -79.125 13.875 C-71.61987077 0.07814567 -59.85283776 -7.54677343 -45.1875 -12 C-28.84462237 -16.00233738 -12.67962712 -10.39884054 0 0 Z M-58.1875 18 C-64.35190728 25.94884097 -65.35661029 34.17738588 -64.1875 44 C-61.2691912 53.15190222 -56.19123331 59.60261713 -47.875 64.30859375 C-39.79244042 68.05195868 -31.34121778 68.41489081 -22.9375 65.4375 C-14.41577725 61.52544108 -8.88367991 55.58211731 -5.1875 47 C-2.71102693 39.20545975 -3.50513872 30.68393538 -6.85546875 23.3203125 C-11.55326993 15.13704593 -18.06780697 9.59306934 -27.1875 7 C-40.33258268 5.67470444 -49.06817479 8.50845743 -58.1875 18 Z " fill="#FCFCFC" transform="translate(87.1875,16)"/>
</svg>
