<?xml version="1.0" encoding="UTF-8"?>
<svg version="1.1" xmlns="http://www.w3.org/2000/svg" width="64" height="64">
<path d="M0 0 C2.62414378 1.72726369 4.73650183 3.89547979 6.9296875 6.1328125 C7.56488312 6.76226776 8.20007874 7.39172302 8.85452271 8.04025269 C10.19132767 9.37298095 11.5206103 10.71329159 12.84277344 12.06054688 C14.86824684 14.11813975 16.92371379 16.14178036 18.984375 18.1640625 C20.28057397 19.46422642 21.57491041 20.76625041 22.8671875 22.0703125 C23.48270477 22.67368439 24.09822205 23.27705627 24.73239136 23.89871216 C27.33338123 26.58735225 28.82872726 28.3297454 29.76660156 32 C28.6348887 36.42881771 26.07824801 38.78198763 22.8671875 41.9296875 C22.23773224 42.56488312 21.60827698 43.20007874 20.95974731 43.85452271 C19.62701905 45.19132767 18.28670841 46.5206103 16.93945312 47.84277344 C14.88186025 49.86824684 12.85821964 51.92371379 10.8359375 53.984375 C9.53577358 55.28057397 8.23374959 56.57491041 6.9296875 57.8671875 C6.32631561 58.48270477 5.72294373 59.09822205 5.10128784 59.73239136 C2.19544908 62.54349918 0.78493836 63.89169677 -3.31591797 64.45751953 C-6 64 -6 64 -7.875 62.8125 C-9.44799091 60.27823687 -9.41683309 58.95935625 -9 56 C-7.37729093 53.94102837 -5.85192537 52.26704637 -3.96875 50.48046875 C-3.45824097 49.97703445 -2.94773193 49.47360016 -2.42175293 48.95491028 C-0.79254691 47.35363679 0.85318749 45.77064088 2.5 44.1875 C3.60920927 43.10337497 4.71729651 42.01810068 5.82421875 40.93164062 C8.53665169 38.27426155 11.26403939 35.63314063 14 33 C12.45017265 29.24099366 10.13715443 26.97524469 7.2109375 24.19140625 C5.79941406 22.82338867 5.79941406 22.82338867 4.359375 21.42773438 C2.86537717 19.98958923 1.36783413 18.55571232 -0.13769531 17.12963867 C-1.594925 15.74498492 -3.03599513 14.343387 -4.4765625 12.94140625 C-5.34361816 12.11326416 -6.21067383 11.28512207 -7.10400391 10.43188477 C-9 8 -9 8 -9.35302734 5.30444336 C-9 3 -9 3 -7.875 1.1875 C-5.01805301 -0.62189976 -3.34869969 -0.46204265 0 0 Z " fill="#FFFFFF" transform="translate(22,0)"/>
</svg>
