<?xml version="1.0" encoding="UTF-8"?>
<svg version="1.1" xmlns="http://www.w3.org/2000/svg" width="128" height="128">
<path d="M0 0 C4.14728865 2.33284987 5.661347 4.51289702 7 9 C7.26778213 12.30043146 7.23265653 15.585176 7.1953125 18.89453125 C7.1924826 19.84188644 7.18965271 20.78924164 7.18673706 21.76530457 C7.17557187 24.78116666 7.15047389 27.79672816 7.125 30.8125 C7.11496547 32.86132383 7.10584045 34.91015232 7.09765625 36.95898438 C7.07564449 41.97277148 7.04113971 46.98633483 7 52 C8.27117676 51.98428955 9.54235352 51.9685791 10.85205078 51.95239258 C15.58196644 51.8979675 20.31185456 51.86360408 25.04199219 51.83520508 C27.08663594 51.82014712 29.13124755 51.79969643 31.17578125 51.77368164 C34.11987252 51.73716689 37.06353557 51.72024349 40.0078125 51.70703125 C40.9174173 51.69154739 41.82702209 51.67606354 42.76419067 51.66011047 C47.94909555 51.65874505 51.50583299 52.11488837 56 55 C58.820631 57.86833723 59.43135748 59.95100643 59.4375 63.9375 C59.32450863 67.42482447 59.06225628 68.88932218 57.3125 72 C52.02979992 76.56882169 46.75941279 76.27039815 40.10546875 76.1953125 C39.15811356 76.1924826 38.21075836 76.18965271 37.23469543 76.18673706 C34.21883334 76.17557187 31.20327184 76.15047389 28.1875 76.125 C26.13867617 76.11496547 24.08984768 76.10584045 22.04101562 76.09765625 C17.02722852 76.07564449 12.01366517 76.04113971 7 76 C7.01571045 77.27117676 7.0314209 78.54235352 7.04760742 79.85205078 C7.1020325 84.58196644 7.13639592 89.31185456 7.16479492 94.04199219 C7.17985288 96.08663594 7.20030357 98.13124755 7.22631836 100.17578125 C7.26283311 103.11987252 7.27975651 106.06353557 7.29296875 109.0078125 C7.30845261 109.9174173 7.32393646 110.82702209 7.33988953 111.76419067 C7.34125495 116.94909555 6.88511163 120.50583299 4 125 C1.13166277 127.820631 -0.95100643 128.43135748 -4.9375 128.4375 C-8.42482447 128.32450863 -9.88932218 128.06225628 -13 126.3125 C-17.56882169 121.02979992 -17.27039815 115.75941279 -17.1953125 109.10546875 C-17.1924826 108.15811356 -17.18965271 107.21075836 -17.18673706 106.23469543 C-17.17557187 103.21883334 -17.15047389 100.20327184 -17.125 97.1875 C-17.11496547 95.13867617 -17.10584045 93.08984768 -17.09765625 91.04101562 C-17.07564449 86.02722852 -17.04113971 81.01366517 -17 76 C-18.27117676 76.01571045 -19.54235352 76.0314209 -20.85205078 76.04760742 C-25.58196644 76.1020325 -30.31185456 76.13639592 -35.04199219 76.16479492 C-37.08663594 76.17985288 -39.13124755 76.20030357 -41.17578125 76.22631836 C-44.11987252 76.26283311 -47.06353557 76.27975651 -50.0078125 76.29296875 C-50.9174173 76.30845261 -51.82702209 76.32393646 -52.76419067 76.33988953 C-57.94909555 76.34125495 -61.50583299 75.88511163 -66 73 C-68.820631 70.13166277 -69.43135748 68.04899357 -69.4375 64.0625 C-69.32450863 60.57517553 -69.06225628 59.11067782 -67.3125 56 C-62.02979992 51.43117831 -56.75941279 51.72960185 -50.10546875 51.8046875 C-49.15811356 51.8075174 -48.21075836 51.81034729 -47.23469543 51.81326294 C-44.21883334 51.82442813 -41.20327184 51.84952611 -38.1875 51.875 C-36.13867617 51.88503453 -34.08984768 51.89415955 -32.04101562 51.90234375 C-27.02722852 51.92435551 -22.01366517 51.95886029 -17 52 C-17.01571045 50.72882324 -17.0314209 49.45764648 -17.04760742 48.14794922 C-17.1020325 43.41803356 -17.13639592 38.68814544 -17.16479492 33.95800781 C-17.17985288 31.91336406 -17.20030357 29.86875245 -17.22631836 27.82421875 C-17.26283311 24.88012748 -17.27975651 21.93646443 -17.29296875 18.9921875 C-17.31619453 17.6277803 -17.31619453 17.6277803 -17.33988953 16.23580933 C-17.34125495 11.05090445 -16.88511163 7.49416701 -14 3 C-9.9021958 -1.02964945 -5.44418323 -0.79412721 0 0 Z " fill="#FFFFFF" transform="translate(69,0)"/>
</svg>
