<?xml version="1.0" encoding="UTF-8"?>
<svg version="1.1" xmlns="http://www.w3.org/2000/svg" width="128" height="128">
<path d="M0 0 C2.50566957 1.74595985 4.24727533 3.21570926 6.30834961 5.38427734 C6.88337219 5.95652542 7.45839478 6.5287735 8.05084229 7.11836243 C9.93772955 9.00572288 11.79463444 10.9198869 13.65234375 12.8359375 C14.95962553 14.15561043 16.26861729 15.47359144 17.57923889 16.78994751 C21.01806034 20.25359504 24.43176455 23.74102485 27.84118652 27.23358154 C30.63402362 30.08651026 33.44365826 32.92256002 36.25443172 35.75780296 C42.052927 41.60689883 47.84040891 47.46697742 53.59741211 53.35693359 C54.13294205 53.90143661 54.66847198 54.44593964 55.2202301 55.00694275 C58.00693541 57.86778436 59.74463926 59.65935611 60.5 63.625 C58.82145918 74.95515057 40.15623103 88.26061168 32.10855198 96.38807678 C29.01483722 99.5124794 25.92965106 102.64438376 22.86303711 105.79541016 C19.87703569 108.86333283 16.87187241 111.91119145 13.85209465 114.94586182 C12.71013259 116.1000506 11.57506352 117.26110338 10.44726753 118.42913818 C8.87055029 120.05933365 7.27038674 121.66248769 5.66235352 123.26171875 C4.75969254 124.17912842 3.85703156 125.09653809 2.92701721 126.04174805 C-1.08153771 128.72357734 -3.24589713 128.46905499 -8 128 C-10.27734375 126.7578125 -10.27734375 126.7578125 -11.9375 125.125 C-12.50339844 124.59132813 -13.06929687 124.05765625 -13.65234375 123.5078125 C-15.47805027 121.46513796 -15.98402566 120.08386528 -16.5 117.375 C-15.27380394 109.09817657 -5.06289357 101.93096509 0.65234375 96.25 C1.55247696 95.35128174 2.45261017 94.45256348 3.38002014 93.52661133 C5.74711263 91.16413425 8.11634639 88.80384888 10.48669434 86.44464111 C12.91550742 84.02614819 15.34141103 81.60474054 17.76757812 79.18359375 C22.50907369 74.45307046 27.25341898 69.72542027 32 65 C30.48496802 61.43310243 28.39944022 59.16244373 25.65795898 56.44677734 C24.7604039 55.55260101 23.86284882 54.65842468 22.93809509 53.7371521 C21.95745936 52.77004874 20.97679148 51.80297799 19.99609375 50.8359375 C18.99192861 49.83804564 17.98827879 48.83963497 16.98512268 47.84072876 C14.34786017 45.21674832 11.70508329 42.59839906 9.06066895 39.98162842 C4.8232776 35.78741723 0.59264289 31.586417 -3.63480949 27.3821907 C-5.11319333 25.91404164 -6.59493579 24.44934522 -8.07704163 22.98495483 C-9.41864601 21.65314682 -9.41864601 21.65314682 -10.78735352 20.29443359 C-11.97410423 19.12006241 -11.97410423 19.12006241 -13.18482971 17.92196655 C-15.36972665 15.60852033 -15.9253317 14.45867667 -16.4375 11.3125 C-15.82231999 6.6547085 -13.35850176 4.15838378 -10 1 C-6.75221828 -0.62389086 -3.50634459 -0.60675869 0 0 Z " fill="#474747" transform="translate(42,0)"/>
</svg>
