<?xml version="1.0" encoding="UTF-8"?>
<svg version="1.1" xmlns="http://www.w3.org/2000/svg" width="128" height="128">
<path d="M0 0 C2.05307984 1.38501418 3.78990742 2.85379264 5.5546875 4.58984375 C8.76010234 7.71728904 12.2000818 7.32591921 16.45703125 7.2890625 C20.1213785 6.87253148 22.23163423 5.36323907 25 3 C25.45375 2.4225 25.9075 1.845 26.375 1.25 C28.62657636 -0.48198182 30.69040345 -0.64786222 33.48046875 -0.5546875 C40.99865761 1.10047966 48.26018564 5.9944682 54 11 C55.7649473 14.5298946 54.90799577 18.98251899 54.69726562 22.8828125 C54.56694625 28.07628102 55.587626 30.86696217 59 35 C62.10710128 37.41663433 65.11001183 39.08486946 68.75 40.5 C72.29980218 42.13837024 72.71040076 42.5110184 74 46 C74.41382843 49.46916971 74.32439976 52.94611107 74.3125 56.4375 C74.33666992 57.84999023 74.33666992 57.84999023 74.36132812 59.29101562 C74.36756925 68.1346838 74.36756925 68.1346838 71 72 C67.625 73.625 67.625 73.625 64 75 C59.97015518 77.06178107 57.44596666 79.1563381 55 83 C54.06447633 87.10191146 53.87540323 90.00143369 55 94 C55.44894783 98.11535507 55.6052107 100.17287871 53.125 103.5625 C48.97870297 106.79661168 44.59477911 109.45232573 40 112 C39.30648437 112.38800781 38.61296875 112.77601562 37.8984375 113.17578125 C34.62904863 114.59520728 32.38156052 113.91703336 29 113 C27.00319208 111.58291051 25.25305023 110.06240022 23.48046875 108.375 C20.19725674 105.32568436 16.81958411 105.67166846 12.5390625 105.71484375 C7.85894723 106.2404567 5.0524006 108.73711928 2.125 112.25 C-0.39603304 114.32614486 -2.26165746 114.74275576 -5.515625 114.58984375 C-13.02458774 112.80705543 -20.23791426 108.02495405 -26 103 C-28.09081596 98.81836808 -27.00102699 93.91670852 -26.3125 89.4375 C-25.80454192 85.10881377 -26.45049703 82.6542876 -29 79 C-32.5386083 75.35731499 -36.11901263 74.1500172 -40.9140625 72.90625 C-43.61209135 71.73407267 -44.46021625 70.49271364 -46 68 C-46.38818359 65.60571289 -46.38818359 65.60571289 -46.3984375 62.97265625 C-46.40230469 62.01552734 -46.40617187 61.05839844 -46.41015625 60.07226562 C-46.39855469 59.07904297 -46.38695312 58.08582031 -46.375 57.0625 C-46.38660156 56.07314453 -46.39820313 55.08378906 -46.41015625 54.06445312 C-46.37325716 44.9196298 -46.37325716 44.9196298 -43 41 C-40.28475773 39.18983849 -38.62061343 38.52809442 -35.5625 37.6875 C-31.36633848 36.35018674 -29.36009551 34.83515521 -27 31 C-25.16278294 27.32556588 -26.14207262 22.45481084 -26.390625 18.38476562 C-26.50434514 14.29439447 -26.42031493 12.55577554 -23.87890625 9.1953125 C-17.02867334 3.97166135 -8.89355001 -1.9933819 0 0 Z M-3 46.5625 C-5.91388882 51.80551763 -5.95610282 57.17717706 -5 63 C-3.04527169 68.44275267 0.5913536 72.35746058 5.6328125 75.14453125 C11.28671436 77.18777301 17.074742 77.2344328 22.62890625 74.890625 C27.44337178 71.9400794 31.43828427 68.55847508 33 63 C33.83484878 57.18014071 33.92446694 51.79680014 31 46.5625 C27.29470996 41.6186729 23.26732629 38.53649234 17.09765625 37.5234375 C8.25020283 37.09947378 2.34163823 39.43535595 -3 46.5625 Z " fill="#FFFFFF" transform="translate(50,7)"/>
</svg>
