<?xml version="1.0" encoding="UTF-8"?>
<svg version="1.1" xmlns="http://www.w3.org/2000/svg" width="128" height="128">
<path d="M0 0 C0.94230469 -0.03287109 1.88460938 -0.06574219 2.85546875 -0.09960938 C7.4092207 -0.13473649 10.71288223 -0.12364777 14.33984375 2.828125 C18.15301436 6.95648476 18.77505064 10.14636789 19.29296875 15.61328125 C19.37957764 16.51602783 19.46618652 17.41877441 19.55541992 18.34887695 C19.61963135 19.03812256 19.68384277 19.72736816 19.75 20.4375 C20.89370056 20.43083817 22.03740112 20.42417633 23.21575928 20.41731262 C33.98670117 20.35653442 44.75760833 20.31154315 55.52868271 20.28206348 C61.06639495 20.26639827 66.60396891 20.24514421 72.14160156 20.21118164 C77.48433036 20.17861897 82.82692604 20.16065343 88.1697464 20.15286827 C90.20953721 20.14731922 92.24932063 20.13648346 94.28905487 20.12030983 C97.14305955 20.0985768 99.99651201 20.09553136 102.85058594 20.09692383 C103.69647278 20.086138 104.54235962 20.07535217 105.41387939 20.0642395 C108.73424497 20.08180383 111.28735634 20.20587444 114.28344727 21.70588684 C116.58930486 24.42849834 116.1609414 26.4722815 116.00256348 29.90423584 C115.57158459 34.22704365 114.79857196 38.44283884 113.921875 42.6953125 C113.63645844 44.1162471 113.63645844 44.1162471 113.34527588 45.56588745 C112.94280778 47.55508509 112.53581819 49.54337278 112.12451172 51.53076172 C111.50094052 54.55793417 110.900123 57.58904299 110.30078125 60.62109375 C109.90501569 62.56277972 109.50792492 64.50419614 109.109375 66.4453125 C108.93315613 67.3433963 108.75693726 68.2414801 108.57537842 69.16677856 C107.12617811 76.02536934 105.44156845 81.09572368 99.98657227 85.84179688 C93.93312059 88.84535146 86.56866443 88.00937291 79.96484375 87.96875 C78.41980241 87.97144804 76.87476273 87.97533305 75.32972717 87.98034668 C72.10108173 87.98622539 68.87288067 87.97773078 65.64428711 87.95898438 C61.5160667 87.93617596 57.38888557 87.94933923 53.26070309 87.97327423 C50.07353447 87.98776033 46.88661044 87.98311382 43.69943428 87.97276306 C42.17766762 87.97010451 40.65587839 87.97333478 39.13413811 87.98268127 C37.00411399 87.99289635 34.8757507 87.97728138 32.74584961 87.95507812 C31.53674423 87.95189575 30.32763885 87.94871338 29.08189392 87.94543457 C24.03938583 87.17672337 20.97376888 84.68918009 17.4699707 81.10546875 C15.42087797 77.92697544 14.85214486 75.47955267 14.23046875 71.75 C14.11470993 71.07066406 13.99895111 70.39132813 13.87968445 69.69140625 C13.47936229 67.27657723 13.11103934 64.85851422 12.75 62.4375 C12.60709534 61.48020996 12.46419067 60.52291992 12.31695557 59.53662109 C11.18287003 51.84363693 10.11897053 44.14145636 9.0625 36.4375 C8.73928283 34.10151397 8.41571765 31.76557607 8.09179688 29.4296875 C7.30718977 23.76617289 6.52686219 18.1020819 5.75 12.4375 C4.70199219 12.47230469 3.65398438 12.50710938 2.57421875 12.54296875 C1.19532853 12.57110937 -0.18357902 12.59840924 -1.5625 12.625 C-2.59793945 12.66270508 -2.59793945 12.66270508 -3.65429688 12.70117188 C-8.73684645 12.77483201 -8.73684645 12.77483201 -11.2109375 11.1484375 C-12.94638352 8.29082338 -12.54449364 5.67693002 -12.25 2.4375 C-8.91049375 -0.90200625 -4.53509642 0.02746694 0 0 Z " fill="#FFFFFF" transform="translate(12.25,2.5625)"/>
<path d="M0 0 C3.58407713 3.24273645 6.22035241 5.83975896 7.0078125 10.7734375 C7.31388325 17.56820811 5.48742477 21.05458726 1.0625 26.1875 C-2.36568591 29.01947966 -6.58483944 28.70548728 -10.80078125 28.65625 C-15.74669296 28.11587725 -18.90203263 25.94299753 -22.3125 22.3125 C-24.29409072 16.83398448 -24.41520678 10.81948593 -22.125 5.4375 C-16.0707422 -1.69787526 -8.89110807 -4.28090389 0 0 Z " fill="#FFFFFF" transform="translate(105.375,96.625)"/>
<path d="M0 0 C5.13308791 2.61320839 8.1797908 5.53937241 10 11 C10.3684431 16.61875724 10.19190228 20.15711379 7 25 C2.07526685 29.44427138 -0.95394683 30.36172836 -7.4609375 30.27734375 C-12.50573015 29.72629717 -15.09986364 26.99488756 -18.375 23.375 C-20.57907893 18.79729761 -20.7971639 14.99447589 -20 10 C-15.84804184 1.37670229 -9.16234309 -1.48981188 0 0 Z " fill="#FFFFFF" transform="translate(51,95)"/>
</svg>
