<?xml version="1.0" encoding="UTF-8"?>
<svg version="1.1" xmlns="http://www.w3.org/2000/svg" width="128" height="128">
<path d="M0 0 C1.20759727 -0.01925285 1.20759727 -0.01925285 2.43959045 -0.03889465 C3.30313644 -0.04628159 4.16668243 -0.05366852 5.05639648 -0.0612793 C5.95688217 -0.06935104 6.85736786 -0.07742279 7.78514099 -0.08573914 C9.6923532 -0.09955839 11.59958992 -0.11029018 13.50683594 -0.11816406 C15.44148087 -0.12964611 17.37609508 -0.15003759 19.31054688 -0.1796875 C44.85304685 -0.5709006 44.85304685 -0.5709006 55.14624023 9.3215332 C61.92568897 16.64025627 64.38856868 23.50868417 64.18139648 33.59106445 C63.58908273 38.43194967 61.05169676 41.01976664 57.68502808 44.30282593 C54.06126133 46.71115416 51.76456889 46.6960245 47.43188477 46.72631836 C46.70112732 46.73654022 45.97036987 46.74676208 45.21746826 46.7572937 C42.81057638 46.78501029 40.40483488 46.78317847 37.99780273 46.77856445 C36.31777525 46.7863433 34.63775167 46.79501366 32.95773315 46.80453491 C29.43889612 46.81944342 25.92046044 46.81888943 22.40161133 46.80834961 C17.90321949 46.79676838 13.40647687 46.83060437 8.90835762 46.87703896 C5.43889848 46.90657864 1.96983347 46.90824844 -1.49972916 46.9020195 C-3.15746448 46.90304294 -4.81522274 46.91346267 -6.47283554 46.93364334 C-21.03599807 47.0891751 -21.03599807 47.0891751 -25.58081055 43.3815918 C-29.98878505 38.67446543 -30.53534034 34.30071444 -30.36938477 28.04418945 C-29.5952201 18.57357499 -25.22793067 12.41050453 -18.13500977 6.17700195 C-12.45140565 2.54581044 -6.78848033 0.09491628 0 0 Z " fill="#464646" transform="translate(47.135009765625,69.822998046875)"/>
<path d="M0 0 C6.8174645 3.99644471 10.87397925 9.00050439 13.02734375 16.62109375 C14.63254323 24.4878978 13.31759844 30.87246393 9.5 37.9375 C7.0625 40.8125 7.0625 40.8125 4.5 42.9375 C3.695625 43.659375 2.89125 44.38125 2.0625 45.125 C-4.22028102 49.56891828 -11.03241748 49.71497324 -18.5 48.9375 C-27.12377635 46.54200657 -31.85531659 41.30004786 -36.484375 33.90234375 C-39.61418922 27.847357 -39.23638466 20.71785309 -37.375 14.3125 C-34.53954235 6.81225718 -29.68699264 2.12467588 -22.40625 -1.17578125 C-14.92024529 -3.45981763 -7.147407 -3.24001432 0 0 Z " fill="#474747" transform="translate(76.5,14.0625)"/>
</svg>
